<svg xmlns="http://www.w3.org/2000/svg" viewBox="0 0 514.38 502.91"><defs><style>.cls-1{fill:#802d40;}.cls-2{fill:#e6c2e1;}.cls-3{fill:#8a2be2;}.cls-4{fill:#f3d55b;}</style></defs><title>bladder-icon</title><g id="Layer_2" data-name="Layer 2"><g id="bladder-icon"><g id="ureter"><path class="cls-1" d="M481.66,52a139.08,139.08,0,0,1,17.91-9.45A23,23,0,0,0,511.51,9.91a21.78,21.78,0,0,0-25.83-8.55,136.33,136.33,0,0,0-27.41,13.16c-27.21,17-41.1,55.24-46.07,86.34a154.67,154.67,0,0,1,38.47,9.44C456.74,75.73,467.36,60.89,481.66,52Z"/><path class="cls-1" d="M51.26,16.35a135.89,135.89,0,0,0-30.34-1.94A21.8,21.8,0,0,0,.17,32,23,23,0,0,0,23.45,57.77a137.6,137.6,0,0,1,20.15,2c16.06,2.84,31,12.26,48.8,39.81A144.87,144.87,0,0,1,125,77.06C108.64,50.64,82.06,21.78,51.26,16.35Z"/></g><g id="bladder"><path id="outer" class="cls-2" d="M483.89,202.77c0-132.41-150.07-158.89-220.69-158.89-88.28,0-220.69,26.48-220.69,158.9,0,102.49,95.17,152.07,166.85,169.24A26.16,26.16,0,0,1,229,391.49a438.55,438.55,0,0,1,7.56,85.18,26.6,26.6,0,0,0,53.19,0,438.55,438.55,0,0,1,7.56-85.18A26.16,26.16,0,0,1,317,372C388.71,354.84,483.89,305.27,483.89,202.77Z"/><path id="inner" class="cls-3" d="M263.2,344c-47.52,0-185.38-34.78-185.38-141.25C77.82,95.24,194,79.19,263.2,79.19c19,0,185.37,3.46,185.37,123.58C448.57,309.24,310.71,344,263.2,344Z"/></g><path id="pee" class="cls-4" d="M447,221.93C431.71,313.47,307.69,344,263.2,344c-41.67,0-152.72-26.75-179.47-105l2.91-.89c35.31-17.65,53-26.48,97.11-26.48,35.31,0,70.62,26.48,105.93,26.48s61.79-26.48,105.93-26.48a179.81,179.81,0,0,1,44.14,8.83Z"/></g></g></svg>