<svg xmlns="http://www.w3.org/2000/svg" viewBox="0 0 353.39 512"><defs><style>.cls-1{fill:#f7b594;}.cls-2{fill:#f0a479;}.cls-3{fill:#e4eaf8;}.cls-4{fill:#e6c2e1;}.cls-5{fill:#8a2be2;}</style></defs><title>Asset 1</title><g id="Layer_2" data-name="Layer 2"><g id="breast-icon"><path id="breast" class="cls-1" d="M318.46,273.24c-6.93-5.6-15.4-13.79-23.16-20.38A132.47,132.47,0,0,1,225.39,272c-72.5-.62-118.36-62.52-120.45-134-2.12-.37,11.64-105.5,15.55-106.27a167.48,167.48,0,0,0-5.09-18A100.38,100.38,0,0,0,110.15.74,12,12,0,0,0,106,0H12A12,12,0,0,0,0,12V500a12,12,0,0,0,12,12H165.79a12,12,0,0,0,12-12V451.42a6.46,6.46,0,0,1,7.4-6.4c27,4,120.28,8.58,151.62-112.29C320.22,319,312.32,295.69,318.46,273.24Z"/><g id="nipple"><path id="ns" class="cls-2" d="M353.23,300.51c-1.64,11.19-14,22.67-16.46,32.22-13.07-6.43-22.29-21.82-22.29-39.8a49.89,49.89,0,0,1,4-19.68c8.11,6.54,24.93,10.51,29.39,13.92A14.18,14.18,0,0,1,353.23,300.51Z"/></g><path id="cell-outline" class="cls-3" d="M212.78,68.09a116.85,116.85,0,0,0-100.53,57.42,29.89,29.89,0,0,0-1.23,7.67,4.84,4.84,0,0,1-5.19,4.82,116.77,116.77,0,1,0,107-69.91Z"/><path id="inner-cell" class="cls-4" d="M212.78,88.4a96.48,96.48,0,1,0,96.48,96.48A96.59,96.59,0,0,0,212.78,88.4Z"/><path id="cancerous5" class="cls-5" d="M257.38,186.52a12.19,12.19,0,1,1-12.18-12.18A12.19,12.19,0,0,1,257.38,186.52Z"/><path id="cancerous4" class="cls-5" d="M220.44,161.13a24.57,24.57,0,1,1-24.57-24.57A24.57,24.57,0,0,1,220.44,161.13Z"/><path id="cancerous3" class="cls-5" d="M170.5,208.25a10.36,10.36,0,1,1-10.36-10.35A10.36,10.36,0,0,1,170.5,208.25Z"/><path id="cancerous2" class="cls-5" d="M268.39,139.61a14,14,0,1,1-14-14A14,14,0,0,1,268.39,139.61Z"/><path id="cancerous1" class="cls-5" d="M252.67,226.91a5.93,5.93,0,0,1,0-8.39l4.17-4.17a5.93,5.93,0,0,1,8.39,8.39l-4.17,4.17A5.93,5.93,0,0,1,252.67,226.91Z"/></g></g></svg>