<svg xmlns="http://www.w3.org/2000/svg" viewBox="0 0 459.15 512"><defs><style>.cls-1{fill:#e6c2e1;}</style></defs><title>colon-icon</title><g id="Layer_2" data-name="Layer 2"><g id="colon-icon"><path id="colon" class="cls-1" d="M441.47,273.65c26.48-26.48-8.83-53-8.83-53,26.48-26.48,0-53,0-53,22.07-22.07,0-53,0-53A80.12,80.12,0,0,0,459.12,53c0-26.48-8.83-53-44.14-53s-44.13,35.31-44.13,35.31c-35.31,0-44.14,35.31-44.14,35.31-35.31-26.48-53,17.66-53,17.66C238.43,61.79,212,97.1,212,97.1c0-26.48-44.14-26.48-53-17.65C159,53,141.33,17.66,88.36,17.66S8.91,53,8.91,79.45a32.44,32.44,0,0,0,8.83,26.48l8.83,8.83s-17.65,26.48,0,44.14c0,0-26.48,17.65,0,44.14,0,0-39.72,22.06-8.83,53A77.34,77.34,0,0,0,.09,309c0,14.16,5.74,34,35.31,41.26v2.88c0,17.65,8.83,35.31,8.83,53,0,26.48,0,53,17.65,53s17.66-26.49,17.66-53c0-17.65-8.83-35.31-8.83-53v-.54a59.91,59.91,0,0,0,53-61.26A38.24,38.24,0,0,0,106,256c17.65-8.83,12.53-53-8.83-53,0,0,22.07-22.07,0-44.14v-8.83a61.1,61.1,0,0,0,44.14,0A53.39,53.39,0,0,0,212,158.9c35.31,35.31,70.62,0,70.62,0,44.14,0,44.14-17.66,44.14-17.66,17.65,8.83,26.48,0,35.31-8.82-8.83,17.65,8.83,35.31,8.83,35.31-30.9,30.89,0,53,0,53-26.49,26.48,8.82,53,8.82,53A38.26,38.26,0,0,0,362,309a30,30,0,0,0,8.47,17.3,39.61,39.61,0,0,0-26.13-8.47,38.68,38.68,0,0,0-26.48,8.82c-17.65-26.48-35.31-26.48-61.79-26.48-17.66,0-61.8,8.83-61.8,53V459A62.6,62.6,0,0,0,212,503.18a32,32,0,0,0,44.14,0A62.55,62.55,0,0,0,273.74,459V414.9c26.49,0,35.31-8.83,35.31-8.83,30.9,30.9,61.8,0,61.8,0,44.13,0,44.13-26.48,44.13-26.48,44.14,0,26.49-53,26.49-53C472.36,295.72,441.47,273.65,441.47,273.65Z"/></g></g></svg>