<svg xmlns="http://www.w3.org/2000/svg" viewBox="0 0 512 488.23"><defs><style>.cls-1{fill:#8a2be2;}.cls-2{fill:#e6c2e1;}</style></defs><title>lung-icon</title><g id="Layer_2" data-name="Layer 2"><g id="lung-icon"><g id="lungs"><path id="left-lung" class="cls-1" d="M205.37,82a70.39,70.39,0,0,0-65.06-7.67A218.09,218.09,0,0,0,0,278.11V417.94a70.4,70.4,0,0,0,93.48,66.4l25.75-8.85A173.18,173.18,0,0,0,236,311.93V140A70.56,70.56,0,0,0,205.37,82Z"/><path id="right-lung" class="cls-1" d="M473.52,154.37a217,217,0,0,0-101.79-80A70.47,70.47,0,0,0,276,140V312A173.16,173.16,0,0,0,392.77,475.49l25.69,8.83A70.4,70.4,0,0,0,512,417.91V278.11a217.32,217.32,0,0,0-38.48-123.74Z"/></g><path id="trachea" class="cls-2" d="M389.52,296.69C382.16,310.8,268.1,232.23,256,232.23s-125.95,79-133.52,64.46A42.61,42.61,0,0,1,139,240.14a25.39,25.39,0,0,0,3-2,488.72,488.72,0,0,0,37.45-32.69c18.8-18.38,35.76-23.48,33-40.52L229.12,13.56c26.88-28.1,44.39-8.78,51.3,23.75,10.06,47.31,16.92,107.26,17.95,116.51.09.81.13,1.62.14,2.43a76.15,76.15,0,0,0,40.89,66.29l32.09,16.76A42.6,42.6,0,0,1,389.52,296.69Z"/></g></g></svg>