<svg xmlns="http://www.w3.org/2000/svg" viewBox="0 0 512 512"><defs><style>.cls-1{fill:#8a2be2;}.cls-2{fill:#e0b799;}.cls-3{fill:#e6c2e1;}.cls-4{fill:#eda1ab;}</style></defs><title>prostate-icon</title><g id="Layer_2" data-name="Layer 2"><g id="prostate-cancer-icon"><path id="ureter-left" class="cls-1" d="M189.05,268.13c-11.65,0-26-10.51-21.1-21.11,25.87-56.33-6.26-95.59-31.93-108.27-26.41-38.31-43-23.45-57-26.13A21.11,21.11,0,1,1,87,71.16c20.63,3.94,52.15,19.21,78.75,50.21C186,145,210.16,186,210.16,247A21.11,21.11,0,0,1,189.05,268.13Z"/><path id="kidney-left" class="cls-2" d="M35.47,186.22a121.47,121.47,0,0,1,0-171.56,50.06,50.06,0,0,1,70.79,70.79,21.23,21.23,0,0,0,0,30c19.55,19.55,8.29,34.48-11.26,54S55,205.77,35.47,186.22Z"/><path id="ureter-right" class="cls-1" d="M322.94,268.13c11.66,0,22.57-9.54,21.11-21.11-5.54-43.81,9.67-90.05,25.31-108.27C387.64,117.44,419,115.3,433,112.62A21.11,21.11,0,1,0,425,71.16c-20.63,3.94-52.15,19.21-78.75,50.21C326,145,301.84,186,301.84,247a21.11,21.11,0,0,0,21.1,21.11Z"/><path id="kidney-right" class="cls-2" d="M476.53,186.22a121.47,121.47,0,0,0,0-171.56,50.06,50.06,0,0,0-70.79,70.79,21.23,21.23,0,0,1,0,30c-19.55,19.55-.73,41.11,18.81,60.65S457,205.77,476.53,186.22Z"/><path id="urethra" class="cls-3" d="M318.17,399.61c0-31.45-27.83-55.48-62.17-53.68s-62.18,28.75-62.18,60.2c0,20.73,22.7,23.94,40.79,32.95,7.75,3.85,2,26.06,2,34.7V504.2a7.81,7.81,0,0,0,7.81,7.8h23.08a7.8,7.8,0,0,0,7.8-7.8V470.5c0-8.25-.78-25.66,6.35-29.8,18.65-10.8,36.48-20,36.48-41.09Z"/><path id="prostate" class="cls-4" d="M256,368.38c88.47,0,119.34-102,88.54-141.63-20.46-26.32-65.73-29.68-88.54-14.51-22.81-15.17-68.08-11.81-88.54,14.51C136.66,266.38,167.53,368.38,256,368.38Z"/></g></g></svg>